#!OML:ASF E:\Steps\Project 1\Capture day 1\Session 2\Subject.ASF
:FULLY-SPECIFIED
:DEGREES
498
root 24.0325 15.8433 -6.46342 -159.894 -7.03492 177.346
lowerback -29.4157 -3.52016 -7.02177
upperback 0.76641 -2.40463 -1.20824
thorax 16.688 -1.73859 1.45076
lowerneck 3.15481 1.19442 -3.06129
upperneck 18.4506 -1.3249 7.5305
head 5.05226 -1.16295 2.76381
rclavicle 4.96962e-016 -2.62396e-014
rhumerus -44.6732 -27.8516 -69.5978
rradius 23.1603
rwrist 5.5078
rhand -6.2736 -54.0016
rfingers 7.12502
rthumb 19.5693 276.963
lclavicle 4.96962e-016 -2.62396e-014
lhumerus -29.5369 16.0705 71.1966
lradius 17.7917
lwrist -9.8155
lhand -24.0038 -9.57426
lfingers 7.12502
lthumb 2.47369 20.3911
rfemur -39.6667 10.8906 8.3649
rtibia 11.5155
rfoot -5.79006 -6.30387
rtoes -3.57486
lfemur -12.2936 -13.2305 -22.5616
ltibia 25.1705
lfoot -10.5589 -7.80895
ltoes -20.1104
499
root 24.0565 15.8599 -6.56551 -159.863 -7.06576 177.635
lowerback -29.3453 -3.38938 -6.7141
upperback 0.750443 -2.34773 -1.15552
thorax 16.6261 -1.68709 1.37179
lowerneck 3.04695 1.09852 -2.93918
upperneck 18.0647 -1.29775 7.22804
head 4.95032 -1.1271 2.64786
rclavicle -4.67144e-015 -7.15625e-015
rhumerus -44.3604 -26.0404 -71.2119
rradius 24.6533
rwrist 3.69714
rhand -10.6074 -43.19
rfingers 7.12502
rthumb 15.3987 287.404
lclavicle -4.67144e-015 -7.15625e-015
lhumerus -30.2718 18.5101 69.8533
lradius 16.7237
lwrist -11.7925
lhand -23.97 -9.50529
lfingers 7.12502
lthumb 2.50636 20.4597
rfemur -39.5892 10.4666 9.30804
rtibia 12.1578
rfoot -5.69744 -5.53524
rtoes -4.93834
lfemur -12.4686 -13.2853 -22.1616
ltibia 26.0997
lfoot -10.2629 -7.58221
ltoes -21.476
500
root 24.0834 15.8783 -6.66199 -159.767 -7.13197 177.793
lowerback -29.3391 -3.2941 -6.5808
upperback 0.754879 -2.26906 -1.12375
thorax 16.6209 -1.64167 1.36884
lowerneck 2.98722 1.18296 -2.94697
upperneck 18.0591 -1.18563 7.33351
head 4.95222 -1.06219 2.68623
rclavicle 4.46272e-014 2.46493e-014
rhumerus -43.7941 -26.1526 -71.5046
rradius 24.6607
rwrist 3.96723
rhand -8.11765 -49.1272
rfingers 7.12502
rthumb 17.7956 281.667
lclavicle 4.46272e-014 2.46493e-014
lhumerus -30.8901 20.713 68.5529
lradius 15.5803
lwrist -13.634
lhand -23.9439 -9.35205
lfingers 7.12502
lthumb 2.53155 20.6127
rfemur -39.4919 9.98017 10.0386
rtibia 12.5919
rfoot -5.36275 -4.96387
rtoes -6.38485
lfemur -12.7967 -13.4267 -21.8805
ltibia 27.1347
lfoot -10.1517 -7.19046
ltoes -25.3371
501
root 24.1111 15.8952 -6.75857 -159.673 -7.28747 177.735
lowerback -29.2527 -3.29576 -6.73553
upperback 0.696476 -2.23664 -1.08944
thorax 16.5122 -1.6408 1.50825
lowerneck 3.0802 1.28701 -3.00905
upperneck 18.3217 -1.13421 7.49317
head 5.01431 -1.05022 2.74973
rclavicle 1.23246e-014 1.51076e-014
rhumerus -43.3991 -25.8287 -71.9054
rradius 24.89
rwrist 3.67357
rhand -6.79856 -54.3049
rfingers 7.12502
rthumb 19.0645 276.609
lclavicle 1.23246e-014 1.51076e-014
lhumerus -31.7209 23.2418 66.9974
lradius 14.3124
lwrist -15.919
lhand -23.9847 -8.89112
lfingers 7.12502
lthumb 2.49218 21.0741
rfemur -39.318 9.61462 10.3906
rtibia 12.9388
rfoot -5.24718 -4.6955
rtoes -6.82099
lfemur -13.0928 -13.668 -21.8207
ltibia 28.1744
lfoot -9.71605 -7.03876
ltoes -26.2655
502
root 24.1391 15.91 -6.85677 -159.545 -7.47222 177.708
lowerback -29.1918 -3.31835 -6.82972
upperback 0.647291 -2.24751 -1.07589
thorax 16.4277 -1.65317 1.57263
lowerneck 3.04891 0.995109 -2.70962
upperneck 17.4754 -1.22932 6.83182
head 4.76585 -1.06158 2.48622
rclavicle 4.27387e-015 2.38542e-015
rhumerus -43.1184 -24.7009 -72.8974
rradius 25.831
rwrist 2.33429
rhand -6.89526 -53.9852
rfingers 7.12502
rthumb 18.9715 276.92
lclavicle 4.27387e-015 2.38542e-015
lhumerus -32.7249 25.4835 65.3421
lradius 13.3078
lwrist -17.9563
lhand -24.01 -8.80728
lfingers 7.12502
lthumb 2.46771 21.1582
rfemur -39.0405 9.49534 10.6229
rtibia 13.0027
rfoot -5.44464 -4.58329
rtoes -5.76943
lfemur -13.5202 -13.712 -21.6943
ltibia 29.327
lfoot -8.77358 -7.14634
ltoes -23.0673
503
root 24.1661 15.9275 -6.95211 -159.45 -7.59982 177.801
lowerback -29.1919 -3.28989 -6.77697
upperback 0.73647 -2.21648 -1.03809
thorax 16.5338 -1.63518 1.59808
lowerneck 3.05044 0.640399 -2.47413
upperneck 17.5769 -1.7242 6.65472
head 4.8216 -1.30353 2.37497
rclavicle -1.02374e-014 -3.33958e-014
rhumerus -42.439 -24.4688 -73.4301
rradius 26.2118
rwrist 2.04743
rhand -5.82738 -55.6006
rfingers 7.12502
rthumb 19.9983 275.409
lclavicle -1.02374e-014 -3.33958e-014
lhumerus -33.6325 27.285 63.9737
lradius 12.6423
lwrist -19.4955
lhand -23.9688 -9.19227
lfingers 7.12502
lthumb 2.50745 20.7727
rfemur -38.5911 9.24269 11.0987
rtibia 12.7788
rfoot -5.38424 -4.14897
rtoes -6.4183
lfemur -14.1205 -13.5382 -21.4457
ltibia 30.7188
lfoot -7.63387 -7.18836
ltoes -17.6987
504
root 24.1911 15.9456 -7.04561 -159.398 -7.79558 177.98
lowerback -29.1937 -3.27242 -6.65505
upperback 0.854345 -2.22391 -0.956899
thorax 16.6795 -1.62895 1.61804
lowerneck 2.86223 0.757616 -2.50386
upperneck 16.8181 -1.34705 6.53709
head 4.60152 -1.07574 2.35488
rclavicle -3.19049e-014 -2.46493e-014
rhumerus -41.6487 -23.9382 -74.1276
rradius 26.6672
rwrist 1.53737
rhand -6.85564 -54.555
rfingers 7.12502
rthumb 19.0097 276.354
lclavicle -3.19049e-014 -2.46493e-014
lhumerus -34.5065 29.1359 62.5992
lradius 11.9527
lwrist -21.0494
lhand -23.9056 -9.0284
lfingers 7.12502
lthumb 2.56853 20.9359
rfemur -38.228 8.73955 11.8251
rtibia 12.7489
rfoot -5.28925 -3.56015
rtoes -7.55164
lfemur -14.8525 -13.2206 -21.1113
ltibia 32.371
lfoot -6.69501 -7.11343
ltoes -16.0747
505
root 24.2188 15.9603 -7.13978 -159.318 -8.05895 178.113
lowerback -29.1722 -3.27861 -6.59624
upperback 0.855216 -2.25728 -0.914224
thorax 16.6738 -1.63886 1.62075
lowerneck 2.94857 1.02692 -2.64757
upperneck 17.3803 -1.16089 6.9174
head 4.74983 -1.00592 2.50482
rclavicle 2.06736e-014 8.74653e-015
rhumerus -40.9995 -23.7415 -74.522
rradius 26.6059
rwrist 1.46534
rhand -7.18858 -53.6636
rfingers 7.12502
rthumb 18.6894 277.214
lclavicle 2.06736e-014 8.74653e-015
lhumerus -35.5574 30.7332 61.0241
lradius 11.2379
lwrist -22.68
lhand -23.7402 -8.52666
lfingers 7.12502
lthumb 2.7283 21.4356
rfemur -37.9478 8.27573 12.4662
rtibia 12.7361
rfoot -5.38759 -3.18718
rtoes -7.10395
lfemur -15.6186 -12.7535 -20.8154
ltibia 33.9882
lfoot -5.91371 -6.94736
ltoes -18.2396
506
root 24.2484 15.9741 -7.23153 -159.265 -8.40047 178.193
lowerback -28.9796 -3.26197 -6.59338
upperback 0.749894 -2.26683 -0.878696
thorax 16.4575 -1.64097 1.66407
lowerneck 3.01954 0.909446 -2.49459
upperneck 16.7908 -1.13324 6.52045
head 4.55674 -0.973518 2.3552
rclavicle -1.51076e-014 3.97569e-014
rhumerus -40.8723 -23.2533 -74.9064
rradius 27.2386
rwrist 0.959112
rhand -7.14544 -53.3024
rfingers 7.12502
rthumb 18.7309 277.579
lclavicle -1.51076e-014 3.97569e-014
lhumerus -36.9191 31.8388 59.4363
lradius 10.7317
lwrist -24.3732
lhand -23.5281 -8.99362
lfingers 7.12502
lthumb 2.93308 20.966
rfemur -37.4934 7.71678 13.0828
rtibia 12.5865
rfoot -5.50195 -2.7458
rtoes -7.0086
lfemur -16.3158 -12.2241 -20.5634
ltibia 35.5355
lfoot -4.87325 -6.86182
ltoes -18.1429
